<svg width="30" height="30" viewBox="0 0 30 30" fill="none" xmlns="http://www.w3.org/2000/svg">
    <path d="M11.9062 28.9109C5.5224 27.4994 0.75 21.8056 0.75 15C0.75 7.12765 7.12765 0.75 15 0.75C22.8666 0.75 29.2495 7.12733 29.25 14.9991L11.9062 28.9109ZM11.9062 28.9109V20.0869H8.84719H8.09719V19.3369V15.0009V14.2509H8.84719H11.9062V11.6944C11.9062 9.66575 12.5127 7.99872 13.672 6.83795C14.8305 5.67789 16.4545 5.11031 18.3197 5.11031C19.1803 5.11031 20.0516 5.18667 20.7011 5.26149C21.0275 5.29908 21.3014 5.33671 21.4945 5.36507C21.5911 5.37925 21.6677 5.39115 21.7207 5.39959L21.7821 5.40953L21.7987 5.41229L21.8034 5.41308L21.8048 5.41332L21.8052 5.41339L21.8054 5.41342C21.8055 5.41344 21.8055 5.41345 21.6797 6.15281L21.8055 5.41345L22.4297 5.51969V6.15281V9.84375V10.5938H21.6797H19.785C19.0186 10.5938 18.6379 10.8255 18.4346 11.061C18.2136 11.317 18.0938 11.7036 18.0938 12.1875V14.25M11.9062 28.9109L18.0938 14.25M18.0938 14.25H21.5034H22.3779L22.2447 15.1143L21.5762 19.4502L21.4782 20.0859H20.835H18.0938V28.9098C24.4727 27.4981 29.2496 21.8047 29.25 15L18.0938 14.25Z"
          stroke="#fff" stroke-width="1.5"/>
</svg>
