<svg width="325" height="33" viewBox="0 0 325 33" fill="none" xmlns="http://www.w3.org/2000/svg">
<path d="M17.81 26.465L19.52 29.075C17.78 31.325 15.185 32.45 11.735 32.45C8.495 32.45 5.87 31.49 3.86 29.57C1.88 27.65 0.89 25.085 0.89 21.875C0.89 18.905 1.865 16.4 3.815 14.36C5.765 12.32 8.21 11.3 11.15 11.3C14.69 11.3 17.345 12.185 19.115 13.955L17.45 16.79C15.89 15.38 13.955 14.675 11.645 14.675C9.755 14.675 8.12 15.365 6.74 16.745C5.39 18.095 4.715 19.805 4.715 21.875C4.715 24.065 5.405 25.805 6.785 27.095C8.195 28.415 9.935 29.075 12.005 29.075C14.345 29.075 16.28 28.205 17.81 26.465ZM24.734 29.48C22.754 27.44 21.764 24.905 21.764 21.875C21.764 18.815 22.754 16.295 24.734 14.315C26.744 12.305 29.354 11.3 32.564 11.3C35.774 11.3 38.369 12.305 40.349 14.315C42.359 16.295 43.364 18.815 43.364 21.875C43.364 24.935 42.359 27.47 40.349 29.48C38.369 31.46 35.774 32.45 32.564 32.45C29.384 32.45 26.774 31.46 24.734 29.48ZM27.569 16.7C26.249 18.02 25.589 19.745 25.589 21.875C25.589 24.005 26.234 25.73 27.524 27.05C28.844 28.4 30.524 29.075 32.564 29.075C34.604 29.075 36.269 28.415 37.559 27.095C38.879 25.745 39.539 24.005 39.539 21.875C39.539 19.805 38.879 18.08 37.559 16.7C36.269 15.35 34.604 14.675 32.564 14.675C30.524 14.675 28.859 15.35 27.569 16.7ZM62.7334 11.75H66.3334V32H62.7334V29.12C60.8434 31.34 58.4584 32.45 55.5784 32.45C53.2084 32.45 51.3634 31.73 50.0434 30.29C48.7534 28.82 48.1084 26.66 48.1084 23.81V11.75H51.7084V23C51.7084 27.05 53.4484 29.075 56.9284 29.075C58.0084 29.075 59.0734 28.805 60.1234 28.265C61.2034 27.695 62.0734 26.96 62.7334 26.06V11.75ZM76.4601 32H72.8601V11.75H76.4601V14.225C77.2101 13.385 78.1851 12.71 79.3851 12.2C80.6151 11.66 81.8451 11.39 83.0751 11.39C88.6851 11.39 91.4901 14.36 91.4901 20.3V32H87.8901V20.975C87.8901 16.835 85.9851 14.765 82.1751 14.765C79.8951 14.765 77.9901 15.635 76.4601 17.375V32ZM113.127 26.465L114.837 29.075C113.097 31.325 110.502 32.45 107.052 32.45C103.812 32.45 101.187 31.49 99.1774 29.57C97.1974 27.65 96.2074 25.085 96.2074 21.875C96.2074 18.905 97.1824 16.4 99.1324 14.36C101.082 12.32 103.527 11.3 106.467 11.3C110.007 11.3 112.662 12.185 114.432 13.955L112.767 16.79C111.207 15.38 109.272 14.675 106.962 14.675C105.072 14.675 103.437 15.365 102.057 16.745C100.707 18.095 100.032 19.805 100.032 21.875C100.032 24.065 100.722 25.805 102.102 27.095C103.512 28.415 105.252 29.075 107.322 29.075C109.662 29.075 111.597 28.205 113.127 26.465ZM124.12 32H120.52V11.75H124.12V32ZM120.07 4.145C120.07 3.515 120.295 3.005 120.745 2.615C121.195 2.195 121.75 1.985 122.41 1.985C123.04 1.985 123.565 2.195 123.985 2.615C124.405 3.005 124.615 3.515 124.615 4.145C124.615 4.835 124.405 5.405 123.985 5.855C123.565 6.275 123.04 6.485 122.41 6.485C121.75 6.485 121.195 6.275 120.745 5.855C120.295 5.405 120.07 4.835 120.07 4.145ZM131.571 26.6V0.499998H135.171V24.98C135.171 27.65 135.966 28.985 137.556 28.985C138.336 28.985 139.191 28.685 140.121 28.085L140.931 30.83C139.641 31.85 138.051 32.36 136.161 32.36C133.101 32.36 131.571 30.44 131.571 26.6ZM151.823 32H144.623V8.375H161.138V15.125H151.823V17.69H160.013V24.44H151.823V32ZM173.092 25.475V32H165.892V8.375C167.002 8.375 168.292 8.36 169.762 8.33C171.232 8.3 172.942 8.285 174.892 8.285C182.152 8.285 185.782 11.09 185.782 16.7C185.782 18.23 185.467 19.7 184.837 21.11C184.657 21.53 184.342 21.965 183.892 22.415C183.472 22.865 183.202 23.135 183.082 23.225L182.362 23.72L188.212 32H179.077L175.027 25.475H173.092ZM175.342 15.035C174.622 15.035 173.872 15.065 173.092 15.125V18.725H175.162C177.142 18.725 178.132 18.08 178.132 16.79C178.132 16.34 177.892 15.935 177.412 15.575C176.962 15.215 176.272 15.035 175.342 15.035ZM209.368 32H191.908V8.375H208.963V15.125H199.108V16.79H207.838V23.54H199.108V25.25H209.368V32ZM232.22 32H214.76V8.375H231.815V15.125H221.96V16.79H230.69V23.54H221.96V25.25H232.22V32ZM238.331 32H237.611V8.375H238.196C239.336 8.375 240.671 8.36 242.201 8.33C243.731 8.3 245.156 8.285 246.476 8.285C251.486 8.285 255.236 9.32 257.726 11.39C260.246 13.43 261.506 16.325 261.506 20.075C261.506 23.705 260.186 26.615 257.546 28.805C254.966 30.995 251.186 32.09 246.206 32.09C245.216 32.09 244.076 32.075 242.786 32.045C241.496 32.015 240.011 32 238.331 32ZM246.431 15.035C245.651 15.035 245.111 15.065 244.811 15.125V25.25C245.231 25.31 245.771 25.34 246.431 25.34C251.381 25.34 253.856 23.585 253.856 20.075C253.856 16.715 251.381 15.035 246.431 15.035ZM264.287 20.255C264.287 16.745 265.532 13.835 268.022 11.525C270.482 9.185 273.752 8.015 277.832 8.015C281.852 8.015 285.107 9.11 287.597 11.3C290.117 13.49 291.377 16.475 291.377 20.255C291.377 23.885 290.102 26.84 287.552 29.12C285.002 31.4 281.762 32.54 277.832 32.54C273.782 32.54 270.512 31.445 268.022 29.255C265.532 27.035 264.287 24.035 264.287 20.255ZM271.937 20.255C271.937 21.815 272.507 23.135 273.647 24.215C274.787 25.265 276.182 25.79 277.832 25.79C279.782 25.79 281.252 25.295 282.242 24.305C283.232 23.315 283.727 21.965 283.727 20.255C283.727 18.575 283.172 17.24 282.062 16.25C280.982 15.26 279.572 14.765 277.832 14.765C276.032 14.765 274.592 15.26 273.512 16.25C272.462 17.21 271.937 18.545 271.937 20.255ZM303.214 32H296.014V8.375H303.259L310.819 16.79L317.929 8.375H324.724V32H317.524V19.355L310.819 26.78H309.829L303.214 19.49V32Z" fill="white"/>
</svg>
