<svg width="27" height="27" viewBox="0 0 27 27" fill="none" xmlns="http://www.w3.org/2000/svg">
<path d="M19.6782 26.997C10.499 27.2546 -5.75084 11.0091 2.06318 2.18001C2.09134 2.15301 3.29324 1.10688 3.29324 1.10688C4.04757 0.410516 5.03941 0.0276032 6.06664 0.0361726C7.09386 0.0447419 8.07916 0.444148 8.82174 1.153L11.2458 3.76045C11.9598 4.50566 12.3547 5.49956 12.3465 6.53092C12.3383 7.56229 11.9277 8.5498 11.2019 9.28358L10.7648 9.72678C12.0664 12.6052 14.3693 14.9145 17.2463 16.2263L17.7092 15.7764C18.4601 15.0622 19.4574 14.6638 20.4943 14.6638C21.5313 14.6638 22.5285 15.0622 23.2794 15.7764L25.7992 18.1105C26.5456 18.8386 26.974 19.8315 26.9913 20.8733C27.0086 21.9151 26.6134 22.9217 25.8916 23.6741C25.8916 23.6741 24.844 24.8732 24.817 24.9013C24.142 25.5729 23.3402 26.104 22.458 26.4637C21.5759 26.8235 20.631 27.0047 19.6782 26.997ZM4.41516 4.61198C-1.05815 11.3815 16.4612 27.8665 22.3873 22.5537C22.3873 22.5537 23.4281 21.3625 23.4563 21.3355C23.5619 21.23 23.6212 21.087 23.6212 20.9378C23.6212 20.7887 23.5619 20.6457 23.4563 20.5402L20.9353 18.2072C20.5974 17.926 20.407 17.9226 20.0939 18.1622L18.8143 19.4198C18.5834 19.6466 18.2922 19.8023 17.9753 19.8685C17.6584 19.9347 17.3291 19.9086 17.0266 19.7933C14.779 18.958 12.7374 17.65 11.0404 15.9578C9.34332 14.2656 8.03042 12.2288 7.19067 9.98551C7.06845 9.68099 7.03777 9.3475 7.10239 9.02585C7.16701 8.7042 7.32412 8.40833 7.55451 8.17446L8.80259 6.90785C8.85942 6.85743 8.9051 6.79572 8.93669 6.72667C8.96828 6.65761 8.98509 6.58273 8.98604 6.50682C8.987 6.43091 8.97207 6.35563 8.94223 6.2858C8.91239 6.21598 8.86828 6.15314 8.81273 6.10132L6.3864 3.49386C6.27904 3.40426 6.14146 3.35902 6.00179 3.36738C5.86213 3.37575 5.73095 3.43709 5.63508 3.53885C5.60804 3.56697 4.41516 4.61198 4.41516 4.61198ZM27 10.6863C26.9967 7.85312 25.8682 5.13692 23.8621 3.13356C21.856 1.1302 19.136 0.00327484 16.299 0C15.8508 0 15.4211 0.17777 15.1042 0.494202C14.7873 0.810634 14.6093 1.23981 14.6093 1.68731C14.6093 2.13481 14.7873 2.56399 15.1042 2.88042C15.4211 3.19685 15.8508 3.37462 16.299 3.37462C18.2401 3.377 20.101 4.1481 21.4736 5.51879C22.8462 6.88948 23.6183 8.74785 23.6207 10.6863C23.6207 11.1338 23.7987 11.563 24.1156 11.8794C24.4325 12.1958 24.8622 12.3736 25.3104 12.3736C25.7585 12.3736 26.1882 12.1958 26.5051 11.8794C26.822 11.563 27 11.1338 27 10.6863ZM21.3679 10.6863C21.3664 9.34425 20.8319 8.05759 19.8816 7.10862C18.9313 6.15965 17.6429 5.62586 16.299 5.62437C15.8508 5.62437 15.4211 5.80214 15.1042 6.11857C14.7873 6.435 14.6093 6.86418 14.6093 7.31168C14.6093 7.75918 14.7873 8.18836 15.1042 8.50479C15.4211 8.82122 15.8508 8.99899 16.299 8.99899C16.7471 8.99899 17.1768 9.17676 17.4937 9.49319C17.8106 9.80962 17.9886 10.2388 17.9886 10.6863C17.9886 11.1338 18.1666 11.563 18.4835 11.8794C18.8003 12.1958 19.2301 12.3736 19.6782 12.3736C20.1264 12.3736 20.5561 12.1958 20.873 11.8794C21.1899 11.563 21.3679 11.1338 21.3679 10.6863Z" fill="white"/>
</svg>
