<svg width="386" height="33" viewBox="0 0 386 33" fill="none" xmlns="http://www.w3.org/2000/svg">
    <path d="M17.81 26.465L19.52 29.075C17.78 31.325 15.185 32.45 11.735 32.45C8.495 32.45 5.87 31.49 3.86 29.57C1.88 27.65 0.89 25.085 0.89 21.875C0.89 18.905 1.865 16.4 3.815 14.36C5.765 12.32 8.21 11.3 11.15 11.3C14.69 11.3 17.345 12.185 19.115 13.955L17.45 16.79C15.89 15.38 13.955 14.675 11.645 14.675C9.755 14.675 8.12 15.365 6.74 16.745C5.39 18.095 4.715 19.805 4.715 21.875C4.715 24.065 5.405 25.805 6.785 27.095C8.195 28.415 9.935 29.075 12.005 29.075C14.345 29.075 16.28 28.205 17.81 26.465ZM24.734 29.48C22.754 27.44 21.764 24.905 21.764 21.875C21.764 18.815 22.754 16.295 24.734 14.315C26.744 12.305 29.354 11.3 32.564 11.3C35.774 11.3 38.369 12.305 40.349 14.315C42.359 16.295 43.364 18.815 43.364 21.875C43.364 24.935 42.359 27.47 40.349 29.48C38.369 31.46 35.774 32.45 32.564 32.45C29.384 32.45 26.774 31.46 24.734 29.48ZM27.569 16.7C26.249 18.02 25.589 19.745 25.589 21.875C25.589 24.005 26.234 25.73 27.524 27.05C28.844 28.4 30.524 29.075 32.564 29.075C34.604 29.075 36.269 28.415 37.559 27.095C38.879 25.745 39.539 24.005 39.539 21.875C39.539 19.805 38.879 18.08 37.559 16.7C36.269 15.35 34.604 14.675 32.564 14.675C30.524 14.675 28.859 15.35 27.569 16.7ZM62.7334 11.75H66.3334V32H62.7334V29.12C60.8434 31.34 58.4584 32.45 55.5784 32.45C53.2084 32.45 51.3634 31.73 50.0434 30.29C48.7534 28.82 48.1084 26.66 48.1084 23.81V11.75H51.7084V23C51.7084 27.05 53.4484 29.075 56.9284 29.075C58.0084 29.075 59.0734 28.805 60.1234 28.265C61.2034 27.695 62.0734 26.96 62.7334 26.06V11.75ZM76.4601 32H72.8601V11.75H76.4601V14.225C77.2101 13.385 78.1851 12.71 79.3851 12.2C80.6151 11.66 81.8451 11.39 83.0751 11.39C88.6851 11.39 91.4901 14.36 91.4901 20.3V32H87.8901V20.975C87.8901 16.835 85.9851 14.765 82.1751 14.765C79.8951 14.765 77.9901 15.635 76.4601 17.375V32ZM113.127 26.465L114.837 29.075C113.097 31.325 110.502 32.45 107.052 32.45C103.812 32.45 101.187 31.49 99.1774 29.57C97.1974 27.65 96.2074 25.085 96.2074 21.875C96.2074 18.905 97.1824 16.4 99.1324 14.36C101.082 12.32 103.527 11.3 106.467 11.3C110.007 11.3 112.662 12.185 114.432 13.955L112.767 16.79C111.207 15.38 109.272 14.675 106.962 14.675C105.072 14.675 103.437 15.365 102.057 16.745C100.707 18.095 100.032 19.805 100.032 21.875C100.032 24.065 100.722 25.805 102.102 27.095C103.512 28.415 105.252 29.075 107.322 29.075C109.662 29.075 111.597 28.205 113.127 26.465ZM124.12 32H120.52V11.75H124.12V32ZM120.07 4.145C120.07 3.515 120.295 3.005 120.745 2.615C121.195 2.195 121.75 1.985 122.41 1.985C123.04 1.985 123.565 2.195 123.985 2.615C124.405 3.005 124.615 3.515 124.615 4.145C124.615 4.835 124.405 5.405 123.985 5.855C123.565 6.275 123.04 6.485 122.41 6.485C121.75 6.485 121.195 6.275 120.745 5.855C120.295 5.405 120.07 4.835 120.07 4.145ZM131.571 26.6V0.499998H135.171V24.98C135.171 27.65 135.966 28.985 137.556 28.985C138.336 28.985 139.191 28.685 140.121 28.085L140.931 30.83C139.641 31.85 138.051 32.36 136.161 32.36C133.101 32.36 131.571 30.44 131.571 26.6ZM156.35 29.48C154.37 27.44 153.38 24.905 153.38 21.875C153.38 18.815 154.37 16.295 156.35 14.315C158.36 12.305 160.97 11.3 164.18 11.3C167.39 11.3 169.985 12.305 171.965 14.315C173.975 16.295 174.98 18.815 174.98 21.875C174.98 24.935 173.975 27.47 171.965 29.48C169.985 31.46 167.39 32.45 164.18 32.45C161 32.45 158.39 31.46 156.35 29.48ZM159.185 16.7C157.865 18.02 157.205 19.745 157.205 21.875C157.205 24.005 157.85 25.73 159.14 27.05C160.46 28.4 162.14 29.075 164.18 29.075C166.22 29.075 167.885 28.415 169.175 27.095C170.495 25.745 171.155 24.005 171.155 21.875C171.155 19.805 170.495 18.08 169.175 16.7C167.885 15.35 166.22 14.675 164.18 14.675C162.14 14.675 160.475 15.35 159.185 16.7ZM184.225 32H180.625V8.465C180.625 5.705 181.24 3.62 182.47 2.21C183.7 0.769998 185.455 0.0499983 187.735 0.0499983C190.105 0.0499983 191.905 0.649999 193.135 1.85L191.875 4.595C190.915 3.815 189.73 3.425 188.32 3.425C185.59 3.425 184.225 5.24 184.225 8.87V11.75H190.975V15.125H184.225V32Z" fill="black"/>
    <path d="M212.336 32H205.136V8.375H221.651V15.125H212.336V17.69H220.526V24.44H212.336V32ZM233.605 25.475V32H226.405V8.375C227.515 8.375 228.805 8.36 230.275 8.33C231.745 8.3 233.455 8.285 235.405 8.285C242.665 8.285 246.295 11.09 246.295 16.7C246.295 18.23 245.98 19.7 245.35 21.11C245.17 21.53 244.855 21.965 244.405 22.415C243.985 22.865 243.715 23.135 243.595 23.225L242.875 23.72L248.725 32H239.59L235.54 25.475H233.605ZM235.855 15.035C235.135 15.035 234.385 15.065 233.605 15.125V18.725H235.675C237.655 18.725 238.645 18.08 238.645 16.79C238.645 16.34 238.405 15.935 237.925 15.575C237.475 15.215 236.785 15.035 235.855 15.035ZM269.881 32H252.421V8.375H269.476V15.125H259.621V16.79H268.351V23.54H259.621V25.25H269.881V32ZM292.732 32H275.272V8.375H292.327V15.125H282.472V16.79H291.202V23.54H282.472V25.25H292.732V32Z" fill="#FAD849"/>
    <path d="M298.844 32H298.124V8.375H298.709C299.849 8.375 301.184 8.36 302.714 8.33C304.244 8.3 305.669 8.285 306.989 8.285C311.999 8.285 315.749 9.32 318.239 11.39C320.759 13.43 322.019 16.325 322.019 20.075C322.019 23.705 320.699 26.615 318.059 28.805C315.479 30.995 311.699 32.09 306.719 32.09C305.729 32.09 304.589 32.075 303.299 32.045C302.009 32.015 300.524 32 298.844 32ZM306.944 15.035C306.164 15.035 305.624 15.065 305.324 15.125V25.25C305.744 25.31 306.284 25.34 306.944 25.34C311.894 25.34 314.369 23.585 314.369 20.075C314.369 16.715 311.894 15.035 306.944 15.035ZM324.799 20.255C324.799 16.745 326.044 13.835 328.534 11.525C330.994 9.185 334.264 8.015 338.344 8.015C342.364 8.015 345.619 9.11 348.109 11.3C350.629 13.49 351.889 16.475 351.889 20.255C351.889 23.885 350.614 26.84 348.064 29.12C345.514 31.4 342.274 32.54 338.344 32.54C334.294 32.54 331.024 31.445 328.534 29.255C326.044 27.035 324.799 24.035 324.799 20.255ZM332.449 20.255C332.449 21.815 333.019 23.135 334.159 24.215C335.299 25.265 336.694 25.79 338.344 25.79C340.294 25.79 341.764 25.295 342.754 24.305C343.744 23.315 344.239 21.965 344.239 20.255C344.239 18.575 343.684 17.24 342.574 16.25C341.494 15.26 340.084 14.765 338.344 14.765C336.544 14.765 335.104 15.26 334.024 16.25C332.974 17.21 332.449 18.545 332.449 20.255ZM363.727 32H356.527V8.375H363.772L371.332 16.79L378.442 8.375H385.237V32H378.037V19.355L371.332 26.78H370.342L363.727 19.49V32Z" fill="#3A83F7"/>
</svg>
