<svg width="31" height="30" viewBox="0 0 31 30" fill="none" xmlns="http://www.w3.org/2000/svg">
    <path d="M18.6522 14.5532L18.5009 14.5656M18.5009 14.5656V12.4455C18.46 12.0043 18.5905 11.5642 18.8665 11.2128C19.0559 11.0267 19.2858 10.8847 19.5389 10.7972C19.7921 10.7097 20.0622 10.6791 20.3291 10.7074H22.8509V5.87543L22.3339 5.78914H22.0187L21.2243 5.69053C20.4334 5.59797 19.6378 5.54859 18.8413 5.54261C17.9994 5.50516 17.1583 5.63314 16.3678 5.91896C15.5773 6.20478 14.8535 6.64266 14.2391 7.20669C13.6426 7.83847 13.1813 8.58052 12.8825 9.38919C12.5837 10.1979 12.4533 11.0568 12.4991 11.9154V14.5533H8.71652V20.0633H12.4991L12.4355 29C9.78245 28.3907 7.10721 27.0381 5.19078 25.1439C3.27435 23.2497 1.94276 20.8658 1.3487 18.2656C0.754633 15.6654 0.922142 12.9541 1.83202 10.4428C2.7419 7.93137 4.3573 5.7215 6.49301 4.06653C8.62872 2.41157 11.1983 1.37851 13.907 1.08581C16.6158 0.793115 19.3541 1.25263 21.8079 2.41167C24.2618 3.5707 26.3319 5.38234 27.7808 7.63884C29.2297 9.89535 29.9989 12.5054 30 15.1696C29.9864 18.412 28.8382 21.5521 26.7463 24.0681C24.6544 26.5842 21.7447 28.3245 18.5009 29V20.014H21.9304L22.0061 19.4962L22.7752 14.5656H18.5009Z" stroke="#fff" stroke-width="1.5"/>
</svg>
