<svg width="32" height="24" viewBox="0 0 32 24" fill="none" xmlns="http://www.w3.org/2000/svg">
<path d="M0 12V21C0 22.6569 1.34315 24 3 24H16H29C30.6569 24 32 22.6569 32 21V12V3C32 1.34315 30.6569 0 29 0H16H3C1.34315 0 0 1.34315 0 3V12ZM28.3725 2.22342C27.66 2.95212 27.205 3.40725 19.78 10.8236C17.0525 13.5469 16.915 13.6812 16.7425 13.7658C16.285 13.9896 15.6575 13.9648 15.2525 13.7036C15.1275 13.6265 13.9325 12.4303 7.8025 6.25492C6.035 4.47668 4.41 2.84021 4.19 2.61637L3.7875 2.21347H16.085C22.85 2.21347 28.3775 2.21844 28.3725 2.22342ZM6.285 7.88891C8.495 10.1123 10.305 11.9428 10.305 11.9503C10.305 11.9652 2.4625 19.9585 2.29 20.1177L2.225 20.1774V12.0025C2.225 7.50591 2.235 3.83005 2.245 3.83503C2.2575 3.83751 4.075 5.66301 6.285 7.88891ZM29.775 12.0771C29.775 16.5588 29.765 20.1451 29.7525 20.1401C29.7425 20.1351 27.935 18.3022 25.74 16.0688L21.7475 12.0025L23.68 10.075C28.6 5.16311 29.7625 4.00414 29.7675 4.00414C29.7725 4.00414 29.775 7.63772 29.775 12.0771ZM13.825 15.4247C14.52 15.9295 15.3 16.1658 16.18 16.1335C16.7725 16.1136 17.2775 15.9892 17.7575 15.7455C18.1975 15.5217 18.3575 15.3874 19.2975 14.4622L20.1825 13.5867L24.205 17.6804L28.225 21.7741L16.02 21.7816C9.3075 21.784 3.8125 21.7816 3.805 21.7766C3.8 21.7691 3.9125 21.6473 4.055 21.503C4.195 21.3588 6.0175 19.5059 8.1 17.3845L11.8875 13.5295L12.7625 14.4075C13.26 14.9074 13.7175 15.3451 13.825 15.4247Z" fill="black"/>
</svg>
