<svg width="30" height="30" viewBox="0 0 30 30" fill="none" xmlns="http://www.w3.org/2000/svg">
    <path d="M29.25 15C29.25 22.8701 22.8701 29.25 15 29.25C7.12994 29.25 0.75 22.8701 0.75 15C0.75 7.12994 7.12994 0.75 15 0.75C22.8701 0.75 29.25 7.12994 29.25 15Z" stroke="#fff" stroke-width="1.5"/>
    <path d="M18.4703 6.41443H11.5295C8.70883 6.41443 6.41406 8.70919 6.41406 11.5299V18.4706C6.41406 21.2912 8.70883 23.5862 11.5296 23.5862H18.4703C21.2909 23.5862 23.5858 21.2913 23.5858 18.4706V11.5299C23.5858 8.70919 21.291 6.41443 18.4703 6.41443ZM21.8583 18.4707C21.8583 20.3418 20.3414 21.8587 18.4703 21.8587H11.5296C9.65846 21.8587 8.14158 20.3418 8.14158 18.4707V11.53C8.14158 9.65882 9.65846 8.14189 11.5296 8.14189H18.4703C20.3414 8.14189 21.8583 9.65888 21.8583 11.53V18.4707Z" fill="#fff"/>
    <path d="M14.9999 10.5591C12.551 10.5591 10.5586 12.5515 10.5586 15.0004C10.5586 17.4491 12.551 19.4415 14.9999 19.4415C17.4488 19.4415 19.441 17.4493 19.441 15.0004C19.441 12.5515 17.4488 10.5591 14.9999 10.5591ZM14.9999 17.7141C13.5011 17.7141 12.2861 16.4992 12.2861 15.0004C12.2861 13.5016 13.5011 12.2866 14.9999 12.2866C16.4987 12.2866 17.7135 13.5015 17.7135 15.0004C17.7135 16.4992 16.4987 17.7141 14.9999 17.7141Z" fill="#fff"/>
    <path d="M20.5113 10.5924C20.5113 11.1801 20.0348 11.6567 19.4471 11.6567C18.8594 11.6567 18.3828 11.1801 18.3828 10.5924C18.3828 10.0047 18.8594 9.5282 19.4471 9.5282C20.0349 9.5282 20.5113 10.0046 20.5113 10.5924Z" fill="#fff"/>
    <path d="M18.4689 6.41443H14.9648V8.14189H18.4689C20.34 8.14189 21.8569 9.65888 21.8569 11.53V18.4707C21.8569 20.3418 20.34 21.8587 18.4689 21.8587H14.9648V23.5862H18.4689C21.2895 23.5862 23.5843 21.2913 23.5843 18.4706V11.5299C23.5843 8.70919 21.2895 6.41443 18.4689 6.41443Z" fill="#fff"/>
    <path d="M14.9985 10.5591C14.9872 10.5591 14.9762 10.5599 14.9648 10.5599V12.2874C14.976 12.2873 14.9872 12.2866 14.9985 12.2866C16.4972 12.2866 17.7121 13.5015 17.7121 15.0004C17.7121 16.4992 16.4973 17.7141 14.9985 17.7141C14.9872 17.7141 14.976 17.7134 14.9648 17.7132V19.4407C14.9762 19.4408 14.9872 19.4415 14.9985 19.4415C17.4473 19.4415 19.4396 17.4492 19.4396 15.0004C19.4396 12.5515 17.4473 10.5591 14.9985 10.5591Z" fill="#fff"/>
</svg>
