<svg id="Слой_1" data-name="Слой 1" xmlns="http://www.w3.org/2000/svg" xmlns:xlink="http://www.w3.org/1999/xlink"
     viewBox="0 0 998.23 380.88">
    <defs>
        <style>
            .cls-1{fill:url(#Безымянный_градиент_20);}.cls-2{fill:url(#Безымянный_градиент_20-2);}.cls-3{fill:url(#Безымянный_градиент_20-3);}
        </style>
        <linearGradient id="Безымянный_градиент_20" x1="308.38" y1="162.35" x2="726.8" y2="162.35"
                        gradientUnits="userSpaceOnUse">
            <stop offset="0" stop-color="#edf3f8"/>
            <stop offset="1" stop-color="#227fc6"/>
        </linearGradient>
        <linearGradient id="Безымянный_градиент_20-2" x1="340.57" y1="227.89" x2="654.92" y2="227.89"
                        xlink:href="#Безымянный_градиент_20"/>
        <linearGradient id="Безымянный_градиент_20-3" x1="383.58" y1="267.65" x2="555.16" y2="267.65"
                        xlink:href="#Безымянный_градиент_20"/>
    </defs>
    <path class="cls-1"
          d="M359.4,147.61s152.47-39.53,184.65-53.09S631,59.48,657,44.8s62.69-34.42,68.33-42.89-6.77,23.16-6.77,23.16S710,43,703.87,56.12c-6.78,14.5-29.7,40.41-37.84,48-8.47,7.91-27.38,20.06-41.79,26.55-18.37,8.27-94.48,30.44-98.65,31.57-20.5,5.56-61.07,13.31-70.29,15.33l-57,10a4.39,4.39,0,0,0-3.52,3.93c-.89,10.06-.89,38.44-27.08,74.7-12.24,16.94-11.61,15.43-36.24,41.86-7.26,7.79-23.06,16.12-23.06,16.12l12.33-12.1s7.7-8.43,11.44-12.77c13.55-15.75,31.48-36.44,33.88-77.06A263.72,263.72,0,0,0,359.4,147.61Z"
          transform="translate(-57.21 -0.47)"/>
    <path class="cls-2"
          d="M407.58,196s66.83-7.73,94.87-13.38,62.69-14.31,73.42-17.51S645,140.64,645,140.64l10-4.33-12.23,18.4s-10.17,12.66-13.37,15.67-27.77,22.75-39.15,29.74c-13.08,8-34.82,19-54.59,22.78S476.86,233.29,463.11,234c-25.41,1.31-51,.05-51,.05S401.52,257.39,392,272.6c-6.88,10.94-20,22.06-25.79,26.91-3.05,2.57-23.34,18.64-23.34,18.64l-2.26,1.32L354.5,304.6S366.82,291,369.09,288s13.28-18.4,18.82-30.07c6.39-13.42,13.81-36,13.81-36Z"
          transform="translate(-57.21 -0.47)"/>
    <path class="cls-3"
          d="M421.32,243.89s24.76,4.05,44.05,3.29c17.35-.67,53.94-4.55,61.15-5.32.83-.09,1.65-.21,2.47-.35l26.17-4.59-13.63,9.77a67.73,67.73,0,0,1-7.48,4.66c-5.62,3-15.84,8.16-23.6,10.47-15.67,4.67-27.45,7.64-35.38,9.46-7.15,1.63-25.89,3.24-37.46,2.82-7.63-.28-22.69-2-22.69-2l-7.35,7.29a62.62,62.62,0,0,1-6.15,5.36l-17.84,13.61,13.78-16a52.33,52.33,0,0,0,4.09-5.42l13.1-19.93Z"
          transform="translate(-57.21 -0.47)"/>
    <path d="M94.31,203.65q-1,4.48-2,9.52a40,40,0,0,0-5.79.76,49.9,49.9,0,0,1-8,1,23.81,23.81,0,0,1-11.2-2.52,18.12,18.12,0,0,1-7.51-7.21,20.62,20.62,0,0,1-2.69-10.43,20,20,0,0,1,2.85-10.43,19.7,19.7,0,0,1,7.82-7.43,23.4,23.4,0,0,1,11.23-2.66,58,58,0,0,1,7.06.56,45.12,45.12,0,0,0,5,.44q.36,3.93,1.29,9.52,0,.45-.9.45a.6.6,0,0,1-.67-.45,11.21,11.21,0,0,0-4.34-6.27A12.57,12.57,0,0,0,78.89,176a13.78,13.78,0,0,0-11,5.43,20.23,20.23,0,0,0-4.47,13.3,19.78,19.78,0,0,0,4.43,13,13.54,13.54,0,0,0,10.81,5.36q10,0,14.16-9.47a.76.76,0,0,1,.76-.44C94.05,203.21,94.31,203.36,94.31,203.65Z"
          transform="translate(-57.21 -0.47)"/>
    <path d="M139.56,194.75q0,8.88-5.71,14.52t-14.92,5.64q-9.23,0-14.91-5.64t-5.7-14.52A20,20,0,0,1,104.06,180q5.73-5.82,14.87-5.81T133.82,180A20,20,0,0,1,139.56,194.75Zm-6.16,0q0-8.26-4-13.5a13.13,13.13,0,0,0-21,0q-4,5.24-4,13.5T108.41,208a13.42,13.42,0,0,0,21,0Q133.4,203,133.4,194.75Z"
          transform="translate(-57.21 -0.47)"/>
    <path d="M185.17,175.84c0,.51-.15.77-.44.77a11.58,11.58,0,0,0-4.74,1.3c-.8.57-1.2,1.72-1.2,3.46v17.57c0,5-1.2,8.89-3.61,11.73s-5.8,4.24-10.18,4.24q-7.5,0-11.69-4t-4.2-11V181.37a5.79,5.79,0,0,0-.46-2.73,3.24,3.24,0,0,0-1.7-1.28,15.15,15.15,0,0,0-3.61-.75c-.3,0-.45-.26-.45-.77s.15-.77.45-.77c1.25,0,2.74.05,4.45.16s3,.17,4.18.17,2.53-.05,4.2-.17,3.22-.16,4.48-.16c.29,0,.44.25.44.77s-.15.77-.44.77a15.86,15.86,0,0,0-3.62.74,3.31,3.31,0,0,0-1.72,1.26,5.57,5.57,0,0,0-.49,2.76v17.68q0,6.9,2.61,10.12t8.48,3.22q11.06,0,11.06-14v-17c0-1.74-.42-2.9-1.25-3.49a10.87,10.87,0,0,0-4.69-1.27c-.3,0-.44-.26-.44-.77s.14-.77.44-.77c.86,0,2,.05,3.38.16s2.59.17,3.49.17,2-.05,3.35-.17,2.54-.16,3.48-.16C185,175.07,185.17,175.32,185.17,175.84Z"
          transform="translate(-57.21 -0.47)"/>
    <path d="M233.86,175.85c0,.47-.14.72-.44.76a11.33,11.33,0,0,0-4.81,1.29c-.86.59-1.32,1.74-1.35,3.44l-.62,33c0,.37-.22.56-.67.56a1.65,1.65,0,0,1-.9-.45L196.2,181.84l-.39,25.9a3.19,3.19,0,0,0,0,.42,3.32,3.32,0,0,0,1.35,3,12.1,12.1,0,0,0,4.84,1.3c.3,0,.45.29.45.76s-.15.78-.45.78c-1,0-2.3,0-4-.16s-2.81-.17-3.67-.17-2.19,0-3.78.17-2.72.16-3.56.16c-.29,0-.44-.26-.44-.78s.16-.72.5-.76a11.58,11.58,0,0,0,4.76-1.3c.86-.59,1.32-1.73,1.37-3.43l1-26.37v-.25a3.57,3.57,0,0,0-1.31-3.17,12.13,12.13,0,0,0-4.9-1.34c-.26,0-.4-.26-.4-.77s.15-.77.45-.77c.66,0,1.57.05,2.75.16a21.9,21.9,0,0,0,2.35.17,18.22,18.22,0,0,0,2.35-.17,20.89,20.89,0,0,1,2.41-.16l27,30.15V181.35a3.81,3.81,0,0,0-1.36-3.35,11.47,11.47,0,0,0-5-1.39c-.3,0-.45-.29-.45-.76s.15-.78.45-.78c1,0,2.35.05,4,.16s2.78.17,3.64.17,2.19-.05,3.78-.17,2.72-.16,3.56-.16C233.72,175.07,233.86,175.33,233.86,175.85Z"
          transform="translate(-57.21 -0.47)"/>
    <path d="M273.62,203.65q-1,4.48-2,9.52a40,40,0,0,0-5.79.76,49.9,49.9,0,0,1-7.95,1,23.81,23.81,0,0,1-11.2-2.52,18.12,18.12,0,0,1-7.51-7.21,20.62,20.62,0,0,1-2.69-10.43,20,20,0,0,1,2.85-10.43,19.7,19.7,0,0,1,7.82-7.43,23.4,23.4,0,0,1,11.23-2.66,58,58,0,0,1,7.06.56,45.12,45.12,0,0,0,5,.44q.36,3.93,1.29,9.52,0,.45-.9.45a.6.6,0,0,1-.67-.45,11.21,11.21,0,0,0-4.34-6.27A12.57,12.57,0,0,0,258.2,176a13.78,13.78,0,0,0-11,5.43,20.23,20.23,0,0,0-4.47,13.3,19.78,19.78,0,0,0,4.43,13,13.54,13.54,0,0,0,10.81,5.36q10,0,14.16-9.47a.76.76,0,0,1,.76-.44C273.36,203.21,273.62,203.36,273.62,203.65Z"
          transform="translate(-57.21 -0.47)"/>
    <path d="M296.56,213.23q0,.78-.45.78c-1.25,0-2.74,0-4.45-.16s-3-.17-4.18-.17-2.53,0-4.17.17-3.24.16-4.51.16c-.3,0-.44-.26-.44-.78s.14-.72.44-.76a10.69,10.69,0,0,0,4.61-1.26c.81-.58,1.22-1.73,1.22-3.47V181.37a5.68,5.68,0,0,0-.49-2.76,3.31,3.31,0,0,0-1.72-1.26,16,16,0,0,0-3.62-.74c-.3,0-.44-.26-.44-.77s.14-.77.44-.77c1.27,0,2.78.05,4.51.16s3,.17,4.17.17,2.53-.05,4.18-.17,3.2-.16,4.45-.16c.3,0,.45.25.45.77s-.15.77-.45.77a15.78,15.78,0,0,0-3.59.74,3.16,3.16,0,0,0-1.7,1.25,5.67,5.67,0,0,0-.48,2.77v26.37a5.62,5.62,0,0,0,.48,2.73,3.18,3.18,0,0,0,1.69,1.26,15.45,15.45,0,0,0,3.57.74C296.4,212.51,296.56,212.76,296.56,213.23Z"
          transform="translate(-57.21 -0.47)"/>
    <path d="M334.27,203.71A85.69,85.69,0,0,0,332.2,214q-10.72-.33-15.26-.33t-15.06.33q-.45,0-.45-.78c0-.47.15-.72.45-.76a10.68,10.68,0,0,0,4.6-1.26c.81-.58,1.22-1.73,1.22-3.47V181.37a5.57,5.57,0,0,0-.49-2.76,3.31,3.31,0,0,0-1.72-1.26,15.88,15.88,0,0,0-3.61-.74c-.3,0-.45-.26-.45-.77s.15-.77.45-.77c1.25,0,2.74.05,4.47.16s3.07.17,4.2.17,2.53-.05,4.18-.17,3.2-.16,4.45-.16c.3,0,.45.25.45.77s-.15.77-.45.77a15.91,15.91,0,0,0-3.59.74,3.16,3.16,0,0,0-1.7,1.25,5.67,5.67,0,0,0-.48,2.77v27.21c0,2.2,1.08,3.31,3.25,3.31h5.54a9.29,9.29,0,0,0,5.83-1.84q2.37-1.83,4.7-6.84c.08-.15.25-.23.53-.23a1.19,1.19,0,0,1,.69.23A.62.62,0,0,1,334.27,203.71Z"
          transform="translate(-57.21 -0.47)"/>
    <path d="M298.32,262q0,8.88-5.71,14.52t-14.93,5.64q-9.21,0-14.91-5.64T257.08,262a20.07,20.07,0,0,1,5.73-14.71q5.74-5.82,14.87-5.81t14.9,5.81A20,20,0,0,1,298.32,262Zm-6.16,0q0-8.26-4-13.5a13.13,13.13,0,0,0-21,0q-4,5.24-4,13.5t3.93,13.29a13.42,13.42,0,0,0,21,0Q292.16,270.16,292.16,262Z"
          transform="translate(-57.21 -0.47)"/>
    <path d="M333.51,250.83c0,.38-.32.56-1,.56A.53.53,0,0,1,332,251a9.05,9.05,0,0,0-3.36-4.93,9.86,9.86,0,0,0-5.83-1.68h-5q-3.3,0-3.3,3.36v12.46h6.38c1.87,0,3.13-.42,3.8-1.28a9.91,9.91,0,0,0,1.41-4.57c0-.3.25-.45.76-.45s.78.15.78.45c0,.94-.06,2.11-.17,3.53s-.17,2.47-.17,3.33.06,2,.17,3.36.17,2.65.17,3.59c0,.29-.26.44-.78.44s-.76-.15-.76-.44a10.44,10.44,0,0,0-1.5-4.79c-.7-.92-1.93-1.37-3.71-1.37h-6.38v12.93a5.48,5.48,0,0,0,.49,2.73,3.25,3.25,0,0,0,1.73,1.26,16.2,16.2,0,0,0,3.57.74c.32,0,.48.29.48.76s-.15.78-.45.78c-1.25,0-2.74,0-4.48-.16s-3.06-.17-4.2-.17-2.53.05-4.17.17-3.2.16-4.45.16q-.45,0-.45-.78c0-.47.15-.72.45-.76a15.6,15.6,0,0,0,3.55-.74,3.28,3.28,0,0,0,1.73-1.25,5.56,5.56,0,0,0,.49-2.74V248.57a5.77,5.77,0,0,0-.47-2.73,3.17,3.17,0,0,0-1.69-1.28,15.79,15.79,0,0,0-3.61-.75c-.3,0-.45-.26-.45-.77s.15-.77.45-.77q7.05.33,14.45.33,7,0,14-.33A77.3,77.3,0,0,0,333.51,250.83Z"
          transform="translate(-57.21 -0.47)"/>
    <path d="M478.63,328c0,.3-.33.61-1,1a4.48,4.48,0,0,1-2,.5,4.17,4.17,0,0,1-1.17-.23c-.48-.14-.72-.29-.72-.44a28.35,28.35,0,0,0-6.17-14q-5.18-6.51-15-6.51h-6.68a9.48,9.48,0,0,0-4.45,1.12c-1.41.74-2.11,2.55-2.11,5.45v23.47h5.56a12.19,12.19,0,0,0,9-3.34,14.5,14.5,0,0,0,4-8.79c0-.22.27-.42.83-.61a5,5,0,0,1,1.61-.28,5,5,0,0,1,1.62.28c.55.19.83.39.83.61,0,2.75-.11,5.3-.33,7.68s-.34,4.82-.34,7.34a72.19,72.19,0,0,0,.34,7.28q.33,3.39.33,7.4c0,.22-.28.43-.83.61a5,5,0,0,1-1.62.28,5,5,0,0,1-1.61-.28c-.56-.18-.83-.39-.83-.61q-.78-5.79-3.84-9t-9.18-3.17h-5.56v21.58q0,4.46,2.56,6.57c1.7,1.4,4.71,2.33,9,2.78.22,0,.42.31.61.94a5.91,5.91,0,0,1,.28,1.5,5.49,5.49,0,0,1-.28,1.56c-.19.59-.39.89-.61.89-3.64,0-7.45-.09-11.46-.28s-7.71-.28-11.12-.28-6.95.1-10.62.28-7.32.28-11,.28c-.22,0-.43-.28-.61-.83a5,5,0,0,1-.28-1.62,4.91,4.91,0,0,1,.28-1.44c.18-.6.39-.93.61-1q6.45-.78,8.51-2.78t2.06-6.57V316.5q0-4.54-2.06-6.56t-8.51-2.78c-.22-.07-.43-.41-.61-1a4.91,4.91,0,0,1-.28-1.45,5,5,0,0,1,.28-1.61c.18-.55.39-.83.61-.83l17.13.33q11.13.22,18.24.22,6.35,0,17.46-.16t17.91-.39q0,4.78.39,12.62T478.63,328Z"
          transform="translate(-57.21 -0.47)"/>
    <path d="M576.51,377.12a6.45,6.45,0,0,1-.5,1.56c-.26.59-.5.89-.72.89q-3.12,0-8.23-.28c-3.42-.18-5.75-.28-7-.28-1.78,0-4.12.1-7,.28s-5.23.28-7,.28L532,351.1a10.22,10.22,0,0,0-4-4.62,13.3,13.3,0,0,0-6.34-1.28v20.13q0,4.46,1.66,6.57c1.12,1.4,3.82,2.33,8.12,2.78.23,0,.43.31.62.94a5.81,5.81,0,0,1,.27,1.5,5.44,5.44,0,0,1-.27,1.56c-.19.59-.39.89-.62.89q-5.44,0-10.56-.28c-3.41-.18-6.82-.28-10.23-.28s-7,.1-10.63.28-7.32.28-11,.28c-.23,0-.43-.28-.61-.83a5,5,0,0,1-.28-1.62,4.91,4.91,0,0,1,.28-1.44c.18-.6.38-.93.61-1,4.3-.52,7.13-1.45,8.51-2.78s2-3.53,2-6.57V316.5q0-4.54-2-6.56c-1.38-1.33-4.21-2.26-8.51-2.78-.23-.07-.43-.41-.61-1a4.91,4.91,0,0,1-.28-1.45,5,5,0,0,1,.28-1.61c.18-.55.38-.83.61-.83q5.45,0,11.18.28c3.81.18,7.43.27,10.84.27s6.45-.09,9.12-.27,5.82-.28,9.45-.28q18,0,26,6t8,14q0,7.56-3.62,12.18t-11.77,7.06l15.27,25.47a17.35,17.35,0,0,0,4.78,5.56c1.64,1.11,4.16,1.86,7.57,2.23.23,0,.39.31.51.94A4.34,4.34,0,0,1,576.51,377.12Zm-35.7-52.94q0-8.56-3.12-12.51t-9.56-3.95c-2.67,0-4.42.52-5.23,1.56s-1.22,2.85-1.22,5.45v25.13c.44.08,1.09.15,1.94.22s1.65.12,2.39.12q7.9,0,11.35-3.56T540.81,324.18Z"
          transform="translate(-57.21 -0.47)"/>
    <path d="M652.7,353.54q-.78,6.24-1.5,13.18t-1.06,12.85q-7-.22-17.57-.39t-17-.17q-6.45,0-18.35.23l-17.8.33c-.22,0-.43-.3-.61-.89a5.16,5.16,0,0,1-.28-1.56,4.91,4.91,0,0,1,.28-1.44c.18-.6.39-.93.61-1q6.57-.78,8.62-2.78t2.06-6.57V316.5q0-4.54-2.06-6.56t-8.62-2.78c-.22-.07-.43-.41-.61-1a4.91,4.91,0,0,1-.28-1.45,5.15,5.15,0,0,1,.28-1.55c.18-.59.39-.89.61-.89l16.91.33q11,.22,18.13.22,6,0,17-.16t17.8-.39q-.22,4.56.17,11.79t.61,13c0,.3-.28.61-.83.95a4.48,4.48,0,0,1-2.28.5,3.57,3.57,0,0,1-1.34-.23c-.37-.14-.56-.29-.56-.44a26.74,26.74,0,0,0-5.84-13.29q-4.95-6.29-13.95-6.29h-6.68a9.26,9.26,0,0,0-4.34,1.12c-1.41.74-2.11,2.55-2.11,5.45v23h3.78a12.21,12.21,0,0,0,9-3.34,13.88,13.88,0,0,0,3.95-8.78c0-.23.31-.43.94-.62a5.81,5.81,0,0,1,1.5-.27,5.18,5.18,0,0,1,1.61.27c.56.19.84.39.84.62q0,4.11-.28,7.67t-.28,7.34q0,3.9.28,7.29t.28,7.39c0,.23-.28.43-.84.62a4.43,4.43,0,0,1-3.05,0c-.6-.19-.93-.39-1-.62q-.67-5.78-3.73-8.95t-9.18-3.17H612.1V367q0,4,2.11,5.28a8.23,8.23,0,0,0,4.34,1.28h5.79a21.37,21.37,0,0,0,15-6.11,26.73,26.73,0,0,0,8.23-15c0-.15.17-.26.5-.33a5.17,5.17,0,0,1,1.17-.11,6.57,6.57,0,0,1,2.39.44C652.42,352.73,652.77,353.1,652.7,353.54Z"
          transform="translate(-57.21 -0.47)"/>
    <path d="M737.79,353.54q-.78,6.24-1.5,13.18t-1.06,12.85q-7-.22-17.58-.39t-17-.17q-6.45,0-18.35.23l-17.8.33c-.22,0-.43-.3-.61-.89a5.16,5.16,0,0,1-.28-1.56,4.91,4.91,0,0,1,.28-1.44c.18-.6.39-.93.61-1,4.37-.52,7.25-1.45,8.62-2.78s2.06-3.53,2.06-6.57V316.5q0-4.54-2.06-6.56c-1.37-1.33-4.25-2.26-8.62-2.78-.22-.07-.43-.41-.61-1a4.91,4.91,0,0,1-.28-1.45,5.15,5.15,0,0,1,.28-1.55c.18-.59.39-.89.61-.89l16.91.33q11,.22,18.12.22,6,0,17-.16t17.8-.39q-.23,4.56.16,11.79t.62,13c0,.3-.28.61-.84.95a4.43,4.43,0,0,1-2.28.5,3.52,3.52,0,0,1-1.33-.23c-.37-.14-.56-.29-.56-.44a26.74,26.74,0,0,0-5.84-13.29q-4.95-6.29-14-6.29h-6.67a9.26,9.26,0,0,0-4.34,1.12c-1.41.74-2.11,2.55-2.11,5.45v23H701a12.18,12.18,0,0,0,8.95-3.34,13.78,13.78,0,0,0,4-8.78c0-.23.32-.43,1-.62a5.81,5.81,0,0,1,1.5-.27,5.18,5.18,0,0,1,1.61.27c.56.19.84.39.84.62,0,2.74-.1,5.3-.28,7.67s-.28,4.82-.28,7.34.09,5,.28,7.29.28,4.72.28,7.39c0,.23-.28.43-.84.62a5.18,5.18,0,0,1-1.61.27,5.31,5.31,0,0,1-1.45-.27c-.59-.19-.92-.39-1-.62q-.66-5.78-3.72-8.95T701,343.31h-3.78V367q0,4,2.11,5.28a8.23,8.23,0,0,0,4.34,1.28h5.78a21.39,21.39,0,0,0,15-6.11,26.79,26.79,0,0,0,8.23-15c0-.15.17-.26.5-.33a5.06,5.06,0,0,1,1.17-.11,6.61,6.61,0,0,1,2.39.44C737.51,352.73,737.86,353.1,737.79,353.54Z"
          transform="translate(-57.21 -0.47)"/>
    <path d="M827.88,313.61a34.1,34.1,0,0,1,8.17,12.4,43,43,0,0,1,2.62,15.3,45.78,45.78,0,0,1-2.34,14.51,29.75,29.75,0,0,1-7.78,12.29,39.18,39.18,0,0,1-13.74,8.51q-7.95,3-21.3,2.95-4.23,0-10.51-.17t-10.51-.16q-4.79,0-11.9.11c-4.75.07-8.42.15-11,.22-.23,0-.43-.3-.62-.89a5.44,5.44,0,0,1-.27-1.56,5.19,5.19,0,0,1,.27-1.44c.19-.6.39-.93.62-1q6.55-.78,8.62-2.78t2-6.57V316.5q0-4.54-2-6.56t-8.62-2.78c-.23-.07-.43-.41-.62-1a5.18,5.18,0,0,1-.27-1.45,5.43,5.43,0,0,1,.27-1.55c.19-.59.39-.89.62-.89,2.59.07,6.26.15,11,.22s8.71.11,11.9.11c2.82,0,6.34-.05,10.56-.17s7.72-.16,10.46-.16a62,62,0,0,1,20,3A38,38,0,0,1,827.88,313.61Zm-12.13,27.7q0-15.57-4.72-24.64t-18-8.95l-4.34.22a8.6,8.6,0,0,0-4.34,1.22q-2.11,1.23-2.11,5.23v53.06q0,4,2.11,5.22a8.51,8.51,0,0,0,4.34,1.23l4.34.22q12.55,0,17.62-8.73T815.75,341.31Z"
          transform="translate(-57.21 -0.47)"/>
    <path d="M935.43,341.31A39.1,39.1,0,0,1,924,369.67q-11.4,11.68-32.2,11.68t-32.25-11.73a39.06,39.06,0,0,1-11.46-28.31,40.39,40.39,0,0,1,11.46-28.7q11.45-12.12,32.25-12.12,20.35,0,32,12A39.89,39.89,0,0,1,935.43,341.31Zm-22.91,0q0-15.35-4.45-25.42t-16.24-10.06q-11.9,0-16.29,10.17t-4.4,25.31q0,15.46,4.4,25.08T891.83,376q11.79,0,16.24-9.68T912.52,341.31Z"
          transform="translate(-57.21 -0.47)"/>
    <path d="M1055.44,377.12a6.4,6.4,0,0,1-.22,1.56c-.15.59-.33.89-.55.89-3.64,0-7.34-.09-11.13-.28s-7.37-.28-10.79-.28-6.91.1-10.51.28-7.21.28-10.84.28c-.22,0-.45-.28-.67-.83a4.42,4.42,0,0,1-.33-1.62,4.91,4.91,0,0,1,.28-1.44c.18-.6.39-.93.61-1q6-.68,8.28-2.78t1.95-6.57l-2-48.05-24.36,63.18c-.07.15-.45.33-1.11.56a7.1,7.1,0,0,1-2.23.33,6.29,6.29,0,0,1-2.33-.33,3.58,3.58,0,0,1-1-.56l-24.58-60.73-2.79,45.6q-.33,4.56,2,6.62t8.73,2.73c.23,0,.39.31.5.94a8.31,8.31,0,0,1,.17,1.5,4.42,4.42,0,0,1-.33,1.62c-.23.55-.45.83-.67.83-2.82,0-5.39-.09-7.73-.28s-4.8-.28-7.4-.28-5.15.1-7.45.28-4.71.28-7.23.28c-.22,0-.41-.32-.56-.95a7.48,7.48,0,0,1-.22-1.5,3.39,3.39,0,0,1,.39-1.55c.26-.52.5-.82.72-.89q6.57-.78,9.07-2.73c1.67-1.3,2.65-3.5,3-6.62l4.56-48.83q.33-4.67-2-6.61t-8.78-2.73c-.22-.07-.41-.41-.56-1a6.08,6.08,0,0,1-.22-1.45,3.83,3.83,0,0,1,.39-1.61c.26-.55.5-.83.72-.83,1.85,0,4.34.09,7.45.28s5.48.27,7.1.27q3.09,0,8.24-.27c3.42-.19,6.32-.28,8.68-.28l20.35,50.29,19.48-50.29c2.81,0,5.73.09,8.73.28s5.47.27,7.4.27q3.33,0,7.89-.27t7.9-.28c.22,0,.42.3.61.89a5.15,5.15,0,0,1,.28,1.55,7.46,7.46,0,0,1-.22,1.51c-.15.63-.34.94-.56.94-4.08.45-6.84,1.37-8.29,2.78s-2.09,3.6-1.94,6.56l2.33,48.83q.23,4.46,2.28,6.57c1.37,1.4,4.29,2.33,8.73,2.78.23,0,.43.31.62.94A5.81,5.81,0,0,1,1055.44,377.12Z"
          transform="translate(-57.21 -0.47)"/>
</svg>
